M48
; DRILL file {KiCad (6.0.4-0)} date Thursday, January 26, 2023 at 08:21:50 PM
; FORMAT={-:-/ absolute / metric / decimal}
; #@! TF.CreationDate,2023-01-26T20:21:50-08:00
; #@! TF.GenerationSoftware,Kicad,Pcbnew,(6.0.4-0)
; #@! TF.FileFunction,MixedPlating,1,2
FMAT,2
METRIC
; #@! TA.AperFunction,Plated,PTH,ViaDrill
T1C0.400
; #@! TA.AperFunction,Plated,PTH,ComponentDrill
T2C1.470
; #@! TA.AperFunction,NonPlated,NPTH,ComponentDrill
T3C1.750
; #@! TA.AperFunction,NonPlated,NPTH,ComponentDrill
T4C3.988
%
G90
G05
T1
X125.9Y-135.1
X125.9Y-137.0
X135.3Y-142.4
X135.4Y-139.3
X135.4Y-140.8
X146.3Y-142.4
X146.3Y-144.7
X146.4Y-143.6
X152.4Y-142.4
X152.4Y-144.9
X152.5Y-143.7
X164.1Y-115.7
X167.8Y-115.7
X168.6Y-104.7
X171.7Y-107.9
X183.05Y-144.7
X184.95Y-125.3
X186.65Y-123.6
X186.75Y-143.1
X189.45Y-136.4
X189.65Y-130.0
X190.1Y-151.4
X190.15Y-125.3
X191.0Y-152.1
X191.7Y-152.9
X192.55Y-129.4
X194.25Y-125.3
X194.251Y-148.723
X195.05Y-104.0
X195.25Y-118.3
X195.5Y-149.9
X196.95Y-137.1
X197.55Y-146.1
X199.95Y-104.1
X200.5Y-152.6
X200.5Y-153.7
X203.55Y-138.9
X205.95Y-131.1
X211.35Y-125.8
X214.4Y-140.9
X214.5Y-142.0
X214.5Y-143.4
X254.3Y-136.4
X254.5Y-137.6
X254.6Y-139.1
T2
X73.425Y-113.122
X77.386Y-94.488
X80.164Y-111.957
X81.346Y-75.854
X84.125Y-93.324
X88.086Y-74.69
X94.814Y-104.122
X98.774Y-85.488
X101.553Y-102.958
X102.735Y-66.855
X105.514Y-84.324
X109.474Y-65.69
X113.447Y-108.083
X117.408Y-89.449
X120.187Y-106.918
X121.369Y-70.815
X124.147Y-88.285
X128.108Y-69.651
X128.48Y-151.711
X130.314Y-120.358
X134.274Y-101.724
X135.219Y-150.547
X137.053Y-119.193
X138.235Y-83.09
X141.014Y-100.56
X144.974Y-81.926
X148.947Y-124.318
X152.908Y-105.685
X155.687Y-123.154
X156.43Y-157.653
X156.869Y-87.051
X159.647Y-104.52
X163.17Y-156.488
X163.608Y-85.887
X223.486Y-88.929
X223.925Y-159.531
X227.447Y-107.563
X229.169Y-85.125
X229.608Y-155.726
X231.407Y-126.197
X233.13Y-103.758
X237.091Y-122.392
X242.12Y-84.969
X246.08Y-103.602
X247.803Y-81.164
X250.041Y-122.236
X251.764Y-99.798
X251.875Y-153.59
X255.724Y-118.431
X257.558Y-149.785
X258.986Y-72.694
X262.947Y-91.327
X264.669Y-68.889
X266.908Y-109.961
X268.63Y-87.523
X272.591Y-106.156
X277.62Y-68.733
X281.581Y-87.367
X283.303Y-64.928
X285.541Y-106.0
X287.264Y-83.562
X291.224Y-102.196
X299.008Y-77.733
X302.969Y-96.366
X304.692Y-73.928
X306.93Y-115.0
X308.652Y-92.562
X312.613Y-111.195
T3
X71.655Y-115.342
X75.615Y-96.708
X79.576Y-78.075
X81.593Y-117.455
X85.553Y-98.821
X89.514Y-80.187
X93.043Y-106.342
X97.004Y-87.709
X100.965Y-69.075
X102.981Y-108.455
X106.942Y-89.821
X110.903Y-71.187
X111.677Y-110.303
X115.638Y-91.669
X119.598Y-73.036
X121.615Y-112.415
X125.576Y-93.782
X126.709Y-153.932
X128.543Y-122.578
X129.536Y-75.148
X132.504Y-103.944
X136.465Y-85.311
X136.647Y-156.044
X138.481Y-124.69
X142.442Y-106.057
X146.403Y-87.423
X147.177Y-126.539
X151.138Y-107.905
X154.66Y-159.873
X155.099Y-89.271
X157.115Y-128.651
X161.076Y-110.017
X164.598Y-161.985
X165.036Y-91.384
X222.772Y-91.678
X223.21Y-162.279
X226.733Y-110.312
X230.693Y-128.945
X232.71Y-89.565
X233.148Y-160.167
X236.671Y-108.199
X240.631Y-126.833
X241.406Y-87.717
X245.366Y-106.351
X249.327Y-124.984
X251.161Y-156.338
X251.344Y-85.605
X255.304Y-104.238
X258.272Y-75.442
X259.265Y-122.872
X261.099Y-154.226
X262.233Y-94.076
X266.193Y-112.71
X268.21Y-73.33
X272.171Y-91.963
X276.131Y-110.597
X276.906Y-71.481
X280.866Y-90.115
X284.827Y-108.749
X286.844Y-69.369
X290.804Y-88.003
X294.765Y-106.636
X298.294Y-80.481
X302.255Y-99.115
X306.216Y-117.749
X308.232Y-78.369
X312.193Y-97.002
X316.154Y-115.636
T4
X76.624Y-116.398
X80.584Y-97.765
X84.545Y-79.131
X98.012Y-107.399
X101.973Y-88.765
X105.934Y-70.131
X116.646Y-111.359
X120.607Y-92.726
X124.567Y-74.092
X131.678Y-154.988
X133.512Y-123.634
X137.473Y-105.001
X141.434Y-86.367
X152.146Y-127.595
X156.107Y-108.961
X159.629Y-160.929
X160.067Y-90.328
X227.741Y-90.622
X228.179Y-161.223
X231.702Y-109.255
X235.662Y-127.889
X246.375Y-86.661
X250.335Y-105.295
X254.296Y-123.928
X256.13Y-155.282
X263.241Y-74.386
X267.202Y-93.02
X271.162Y-111.653
X281.875Y-70.425
X285.835Y-89.059
X289.796Y-107.693
X303.263Y-79.425
X307.224Y-98.059
X311.185Y-116.692
T0
M30
