%TF.GenerationSoftware,KiCad,Pcbnew,(6.0.4-0)*%
%TF.CreationDate,2023-01-26T20:21:59-08:00*%
%TF.ProjectId,chiffevo,63686966-6665-4766-9f2e-6b696361645f,v1.0.0*%
%TF.SameCoordinates,Original*%
%TF.FileFunction,Paste,Bot*%
%TF.FilePolarity,Positive*%
%FSLAX46Y46*%
G04 Gerber Fmt 4.6, Leading zero omitted, Abs format (unit mm)*
G04 Created by KiCad (PCBNEW (6.0.4-0)) date 2023-01-26 20:21:59*
%MOMM*%
%LPD*%
G01*
G04 APERTURE LIST*
G04 Aperture macros list*
%AMRoundRect*
0 Rectangle with rounded corners*
0 $1 Rounding radius*
0 $2 $3 $4 $5 $6 $7 $8 $9 X,Y pos of 4 corners*
0 Add a 4 corners polygon primitive as box body*
4,1,4,$2,$3,$4,$5,$6,$7,$8,$9,$2,$3,0*
0 Add four circle primitives for the rounded corners*
1,1,$1+$1,$2,$3*
1,1,$1+$1,$4,$5*
1,1,$1+$1,$6,$7*
1,1,$1+$1,$8,$9*
0 Add four rect primitives between the rounded corners*
20,1,$1+$1,$2,$3,$4,$5,0*
20,1,$1+$1,$4,$5,$6,$7,0*
20,1,$1+$1,$6,$7,$8,$9,0*
20,1,$1+$1,$8,$9,$2,$3,0*%
%AMRotRect*
0 Rectangle, with rotation*
0 The origin of the aperture is its center*
0 $1 length*
0 $2 width*
0 $3 Rotation angle, in degrees counterclockwise*
0 Add horizontal line*
21,1,$1,$2,0,0,$3*%
G04 Aperture macros list end*
%ADD10R,1.800000X1.100000*%
%ADD11RotRect,0.900000X1.200000X102.000000*%
%ADD12RotRect,0.900000X1.200000X78.000000*%
%ADD13R,0.600000X1.550000*%
%ADD14R,1.200000X1.800000*%
%ADD15RoundRect,0.250000X-0.250000X-0.475000X0.250000X-0.475000X0.250000X0.475000X-0.250000X0.475000X0*%
%ADD16R,1.200000X1.400000*%
%ADD17RoundRect,0.250000X-0.475000X0.250000X-0.475000X-0.250000X0.475000X-0.250000X0.475000X0.250000X0*%
%ADD18RotRect,0.900000X1.200000X282.000000*%
%ADD19R,1.500000X0.550000*%
%ADD20R,0.550000X1.500000*%
%ADD21RoundRect,0.250000X-0.450000X0.262500X-0.450000X-0.262500X0.450000X-0.262500X0.450000X0.262500X0*%
%ADD22RoundRect,0.250000X0.475000X-0.250000X0.475000X0.250000X-0.475000X0.250000X-0.475000X-0.250000X0*%
%ADD23RoundRect,0.250000X-0.262500X-0.450000X0.262500X-0.450000X0.262500X0.450000X-0.262500X0.450000X0*%
%ADD24RoundRect,0.250000X0.250000X0.475000X-0.250000X0.475000X-0.250000X-0.475000X0.250000X-0.475000X0*%
G04 APERTURE END LIST*
D10*
%TO.C,SW1*%
X206146152Y-109582070D03*
X199946152Y-109582070D03*
X199946152Y-105882070D03*
X206146152Y-105882070D03*
%TD*%
D11*
%TO.C,D29*%
X297032094Y-104467713D03*
X297718202Y-107695601D03*
%TD*%
D12*
%TO.C,D15*%
X163527769Y-112225517D03*
X164213877Y-108997629D03*
%TD*%
D11*
%TO.C,D9*%
X289110660Y-67200288D03*
X289796768Y-70428176D03*
%TD*%
%TO.C,D6*%
X235648314Y-90556046D03*
X234962206Y-87328158D03*
%TD*%
D12*
%TO.C,D24*%
X140919046Y-126965759D03*
X141605154Y-123737871D03*
%TD*%
D11*
%TO.C,D27*%
X262236464Y-124018031D03*
X261550356Y-120790143D03*
%TD*%
D12*
%TO.C,D32*%
X167736105Y-160965565D03*
X167049997Y-164193453D03*
%TD*%
D13*
%TO.C,J1*%
X193547900Y-102444570D03*
X192547900Y-102444570D03*
X191547900Y-102444570D03*
X190547900Y-102444570D03*
D14*
X194847900Y-98569570D03*
X189247900Y-98569570D03*
%TD*%
D15*
%TO.C,C6*%
X199333652Y-141632070D03*
X197433652Y-141632070D03*
%TD*%
D12*
%TO.C,D4*%
X148714166Y-89601200D03*
X149400274Y-86373312D03*
%TD*%
D16*
%TO.C,Y1*%
X207627402Y-135057070D03*
X207627402Y-132857070D03*
X205927402Y-132857070D03*
X205927402Y-135057070D03*
%TD*%
D11*
%TO.C,D19*%
X293071378Y-85834001D03*
X293757486Y-89061889D03*
%TD*%
D17*
%TO.C,C2*%
X203577402Y-133707070D03*
X203577402Y-131807070D03*
%TD*%
D18*
%TO.C,D10*%
X294948011Y-71449881D03*
X295634119Y-74677769D03*
%TD*%
D12*
%TO.C,D5*%
X167347878Y-93561917D03*
X168033986Y-90334029D03*
%TD*%
D19*
%TO.C,U2*%
X187677402Y-129157070D03*
X187677402Y-129957070D03*
X187677402Y-130757070D03*
X187677402Y-131557070D03*
X187677402Y-132357070D03*
X187677402Y-133157070D03*
X187677402Y-133957070D03*
X187677402Y-134757070D03*
X187677402Y-135557070D03*
X187677402Y-136357070D03*
X187677402Y-137157070D03*
D20*
X189377402Y-138857070D03*
X190177402Y-138857070D03*
X190977402Y-138857070D03*
X191777402Y-138857070D03*
X192577402Y-138857070D03*
X193377402Y-138857070D03*
X194177402Y-138857070D03*
X194977402Y-138857070D03*
X195777402Y-138857070D03*
X196577402Y-138857070D03*
X197377402Y-138857070D03*
D19*
X199077402Y-137157070D03*
X199077402Y-136357070D03*
X199077402Y-135557070D03*
X199077402Y-134757070D03*
X199077402Y-133957070D03*
X199077402Y-133157070D03*
X199077402Y-132357070D03*
X199077402Y-131557070D03*
X199077402Y-130757070D03*
X199077402Y-129957070D03*
X199077402Y-129157070D03*
D20*
X197377402Y-127457070D03*
X196577402Y-127457070D03*
X195777402Y-127457070D03*
X194977402Y-127457070D03*
X194177402Y-127457070D03*
X193377402Y-127457070D03*
X192577402Y-127457070D03*
X191777402Y-127457070D03*
X190977402Y-127457070D03*
X190177402Y-127457070D03*
X189377402Y-127457070D03*
%TD*%
D12*
%TO.C,D1*%
X91825450Y-82365248D03*
X92511558Y-79137360D03*
%TD*%
D21*
%TO.C,R3*%
X190847900Y-107632070D03*
X190847900Y-105807070D03*
%TD*%
D11*
%TO.C,D33*%
X235400696Y-157929806D03*
X236086804Y-161157694D03*
%TD*%
D21*
%TO.C,R4*%
X188783652Y-143044570D03*
X188783652Y-141219570D03*
%TD*%
D12*
%TO.C,D14*%
X144894056Y-108264799D03*
X145580164Y-105036911D03*
%TD*%
D11*
%TO.C,D17*%
X258275748Y-105384320D03*
X257589640Y-102156432D03*
%TD*%
D12*
%TO.C,D22*%
X106133567Y-107367685D03*
X105447459Y-110595573D03*
%TD*%
D18*
%TO.C,D30*%
X302869446Y-108717306D03*
X303555554Y-111945194D03*
%TD*%
D11*
%TO.C,D8*%
X270476947Y-71161006D03*
X271163055Y-74388894D03*
%TD*%
%TO.C,D26*%
X243569748Y-127823469D03*
X242883640Y-124595581D03*
%TD*%
D22*
%TO.C,C1*%
X203577402Y-135407070D03*
X203577402Y-137307070D03*
%TD*%
D15*
%TO.C,C4*%
X195233652Y-120232070D03*
X193333652Y-120232070D03*
%TD*%
D11*
%TO.C,D18*%
X274437665Y-89794720D03*
X275123773Y-93022608D03*
%TD*%
D12*
%TO.C,D23*%
X124767279Y-111328403D03*
X124081171Y-114556291D03*
%TD*%
%TO.C,D2*%
X113228285Y-73298262D03*
X113914393Y-70070374D03*
%TD*%
D17*
%TO.C,C5*%
X184977402Y-129907070D03*
X184977402Y-128007070D03*
%TD*%
D18*
%TO.C,D20*%
X298908728Y-90083593D03*
X299594836Y-93311481D03*
%TD*%
D11*
%TO.C,D16*%
X239609030Y-109189757D03*
X238922922Y-105961869D03*
%TD*%
D23*
%TO.C,R1*%
X205496152Y-125732070D03*
X203671152Y-125732070D03*
%TD*%
D21*
%TO.C,R2*%
X193246152Y-107644570D03*
X193246152Y-105819570D03*
%TD*%
D11*
%TO.C,D7*%
X254315031Y-86750608D03*
X253628923Y-83522720D03*
%TD*%
D12*
%TO.C,D3*%
X132548106Y-74031091D03*
X131861998Y-77258979D03*
%TD*%
D11*
%TO.C,D34*%
X263351263Y-151988729D03*
X264037371Y-155216617D03*
%TD*%
D12*
%TO.C,D31*%
X139785538Y-155024489D03*
X139099430Y-158252377D03*
%TD*%
%TO.C,D25*%
X159567051Y-130859229D03*
X160253159Y-127631341D03*
%TD*%
%TO.C,D11*%
X87864733Y-100998960D03*
X88550841Y-97771072D03*
%TD*%
%TO.C,D21*%
X84730732Y-116434670D03*
X84044624Y-119662558D03*
%TD*%
D24*
%TO.C,C8*%
X188127402Y-123557070D03*
X190027402Y-123557070D03*
%TD*%
D12*
%TO.C,D13*%
X128587387Y-92664804D03*
X127901279Y-95892692D03*
%TD*%
D22*
%TO.C,C7*%
X184983652Y-136882070D03*
X184983652Y-138782070D03*
%TD*%
D11*
%TO.C,D28*%
X278398383Y-108428430D03*
X279084491Y-111656318D03*
%TD*%
D12*
%TO.C,D12*%
X109953676Y-88704085D03*
X109267568Y-91931973D03*
%TD*%
M02*
