%TF.GenerationSoftware,KiCad,Pcbnew,(6.0.4-0)*%
%TF.CreationDate,2023-01-26T20:21:59-08:00*%
%TF.ProjectId,chiffevo,63686966-6665-4766-9f2e-6b696361645f,v1.0.0*%
%TF.SameCoordinates,Original*%
%TF.FileFunction,Soldermask,Top*%
%TF.FilePolarity,Negative*%
%FSLAX46Y46*%
G04 Gerber Fmt 4.6, Leading zero omitted, Abs format (unit mm)*
G04 Created by KiCad (PCBNEW (6.0.4-0)) date 2023-01-26 20:21:59*
%MOMM*%
%LPD*%
G01*
G04 APERTURE LIST*
%ADD10C,1.850000*%
%ADD11C,4.087800*%
G04 APERTURE END LIST*
D10*
%TO.C,MX21*%
X71654641Y-115342125D03*
D11*
X76623631Y-116398316D03*
D10*
X81592621Y-117454507D03*
%TD*%
%TO.C,MX20*%
X302255013Y-99114836D03*
X312192993Y-97002454D03*
D11*
X307224003Y-98058645D03*
%TD*%
D10*
%TO.C,MX17*%
X245366297Y-106350786D03*
D11*
X250335287Y-105294595D03*
D10*
X255304277Y-104238404D03*
%TD*%
%TO.C,MX18*%
X262232760Y-94075815D03*
X272170740Y-91963433D03*
D11*
X267201750Y-93019624D03*
%TD*%
%TO.C,MX13*%
X120606602Y-92725583D03*
D10*
X125575592Y-93781774D03*
X115637612Y-91669392D03*
%TD*%
D11*
%TO.C,MX10*%
X303263285Y-79424931D03*
D10*
X308232275Y-78368740D03*
X298294295Y-80481122D03*
%TD*%
D11*
%TO.C,MX4*%
X141433783Y-86366843D03*
D10*
X146402773Y-87423034D03*
X136464793Y-85310652D03*
%TD*%
%TO.C,MX27*%
X249327015Y-124984499D03*
X259264995Y-122872117D03*
D11*
X254296005Y-123928308D03*
%TD*%
%TO.C,MX15*%
X156106775Y-108961274D03*
D10*
X151137785Y-107905083D03*
X161075765Y-110017465D03*
%TD*%
D11*
%TO.C,MX1*%
X84545066Y-79130892D03*
D10*
X89514056Y-80187083D03*
X79576076Y-78074701D03*
%TD*%
D11*
%TO.C,MX25*%
X152146059Y-127594985D03*
D10*
X147177069Y-126538794D03*
X157115049Y-128651176D03*
%TD*%
D11*
%TO.C,MX3*%
X124567319Y-74091871D03*
D10*
X129536309Y-75148062D03*
X119598329Y-73035680D03*
%TD*%
%TO.C,MX31*%
X126709446Y-153931943D03*
D11*
X131678436Y-154988134D03*
D10*
X136647426Y-156044325D03*
%TD*%
D11*
%TO.C,MX24*%
X133512346Y-123634267D03*
D10*
X128543356Y-122578076D03*
X138481336Y-124690458D03*
%TD*%
%TO.C,MX16*%
X236670565Y-108199122D03*
X226732585Y-110311504D03*
D11*
X231701575Y-109255313D03*
%TD*%
D10*
%TO.C,MX32*%
X154660014Y-159873019D03*
X164597994Y-161985401D03*
D11*
X159629004Y-160929210D03*
%TD*%
D10*
%TO.C,MX9*%
X286843733Y-69369003D03*
X276905753Y-71481385D03*
D11*
X281874743Y-70425194D03*
%TD*%
D10*
%TO.C,MX2*%
X110902598Y-71187345D03*
X100964618Y-69074963D03*
D11*
X105933608Y-70131154D03*
%TD*%
D10*
%TO.C,MX30*%
X316153710Y-115636165D03*
X306215730Y-117748547D03*
D11*
X311184720Y-116692356D03*
%TD*%
D10*
%TO.C,MX34*%
X251160926Y-156338364D03*
D11*
X256129916Y-155282173D03*
D10*
X261098906Y-154225982D03*
%TD*%
%TO.C,MX5*%
X155098504Y-89271371D03*
D11*
X160067494Y-90327562D03*
D10*
X165036484Y-91383753D03*
%TD*%
%TO.C,MX28*%
X276131457Y-110597145D03*
D11*
X271162467Y-111653336D03*
D10*
X266193477Y-112709527D03*
%TD*%
%TO.C,MX29*%
X284827188Y-108748809D03*
X294765168Y-106636427D03*
D11*
X289796178Y-107692618D03*
%TD*%
D10*
%TO.C,MX7*%
X241405580Y-87717075D03*
X251343560Y-85604693D03*
D11*
X246374570Y-86660884D03*
%TD*%
D10*
%TO.C,MX26*%
X240631283Y-126832833D03*
X230693303Y-128945215D03*
D11*
X235662293Y-127889024D03*
%TD*%
D10*
%TO.C,MX19*%
X290804451Y-88002714D03*
D11*
X285835461Y-89058905D03*
D10*
X280866471Y-90115096D03*
%TD*%
%TO.C,MX8*%
X258272041Y-75442102D03*
X268210021Y-73329720D03*
D11*
X263241031Y-74385911D03*
%TD*%
%TO.C,MX12*%
X101972890Y-88764866D03*
D10*
X106941880Y-89821057D03*
X97003900Y-87708675D03*
%TD*%
%TO.C,MX11*%
X85553340Y-98820795D03*
D11*
X80584350Y-97764604D03*
D10*
X75615360Y-96708413D03*
%TD*%
%TO.C,MX22*%
X93043182Y-106342387D03*
X102981162Y-108454769D03*
D11*
X98012172Y-107398578D03*
%TD*%
%TO.C,MX6*%
X227740856Y-90621602D03*
D10*
X232709846Y-89565411D03*
X222771866Y-91677793D03*
%TD*%
%TO.C,MX23*%
X111676894Y-110303104D03*
D11*
X116645884Y-111359295D03*
D10*
X121614874Y-112415486D03*
%TD*%
%TO.C,MX33*%
X233148337Y-160167058D03*
D11*
X228179347Y-161223249D03*
D10*
X223210357Y-162279440D03*
%TD*%
%TO.C,MX14*%
X132504075Y-103944365D03*
X142442055Y-106056747D03*
D11*
X137473065Y-105000556D03*
%TD*%
M02*
