%TF.GenerationSoftware,KiCad,Pcbnew,(6.0.4-0)*%
%TF.CreationDate,2023-01-26T20:21:59-08:00*%
%TF.ProjectId,chiffevo,63686966-6665-4766-9f2e-6b696361645f,v1.0.0*%
%TF.SameCoordinates,Original*%
%TF.FileFunction,Legend,Bot*%
%TF.FilePolarity,Positive*%
%FSLAX46Y46*%
G04 Gerber Fmt 4.6, Leading zero omitted, Abs format (unit mm)*
G04 Created by KiCad (PCBNEW (6.0.4-0)) date 2023-01-26 20:21:59*
%MOMM*%
%LPD*%
G01*
G04 APERTURE LIST*
%ADD10C,0.150000*%
%ADD11C,0.120000*%
G04 APERTURE END LIST*
D10*
%TO.C,SW1*%
X204379485Y-104536831D02*
X204236628Y-104584450D01*
X203998532Y-104584450D01*
X203903294Y-104536831D01*
X203855675Y-104489212D01*
X203808056Y-104393974D01*
X203808056Y-104298736D01*
X203855675Y-104203498D01*
X203903294Y-104155879D01*
X203998532Y-104108260D01*
X204189009Y-104060641D01*
X204284247Y-104013022D01*
X204331866Y-103965403D01*
X204379485Y-103870165D01*
X204379485Y-103774927D01*
X204331866Y-103679689D01*
X204284247Y-103632070D01*
X204189009Y-103584450D01*
X203950913Y-103584450D01*
X203808056Y-103632070D01*
X203474723Y-103584450D02*
X203236628Y-104584450D01*
X203046152Y-103870165D01*
X202855675Y-104584450D01*
X202617580Y-103584450D01*
X201712818Y-104584450D02*
X202284247Y-104584450D01*
X201998532Y-104584450D02*
X201998532Y-103584450D01*
X202093771Y-103727308D01*
X202189009Y-103822546D01*
X202284247Y-103870165D01*
%TO.C,D29*%
X298690031Y-108818194D02*
X297711883Y-109026105D01*
X297761386Y-109258998D01*
X297837666Y-109388832D01*
X297950624Y-109462188D01*
X298053681Y-109488965D01*
X298249896Y-109495942D01*
X298389631Y-109466240D01*
X298566044Y-109380059D01*
X298649301Y-109313680D01*
X298722657Y-109200722D01*
X298739533Y-109051086D01*
X298690031Y-108818194D01*
X298003051Y-109937873D02*
X297966373Y-109994352D01*
X297939596Y-110097410D01*
X297989099Y-110330302D01*
X298055478Y-110413558D01*
X298111957Y-110450236D01*
X298215015Y-110477014D01*
X298308172Y-110457213D01*
X298438006Y-110380932D01*
X298878141Y-109703184D01*
X299006848Y-110308704D01*
X299105854Y-110774489D02*
X299145456Y-110960803D01*
X299118679Y-111063860D01*
X299082001Y-111120339D01*
X298962067Y-111243198D01*
X298785653Y-111329378D01*
X298413026Y-111408583D01*
X298309968Y-111381805D01*
X298253489Y-111345128D01*
X298187110Y-111261871D01*
X298147508Y-111075557D01*
X298174285Y-110972500D01*
X298210963Y-110916021D01*
X298294219Y-110849641D01*
X298527111Y-110800139D01*
X298630169Y-110826916D01*
X298686648Y-110863594D01*
X298753027Y-110946850D01*
X298792630Y-111133164D01*
X298765852Y-111236221D01*
X298729174Y-111292700D01*
X298645918Y-111359080D01*
%TO.C,D15*%
X166522077Y-109933700D02*
X165543929Y-109725788D01*
X165494427Y-109958681D01*
X165511303Y-110108317D01*
X165584659Y-110221275D01*
X165667916Y-110287654D01*
X165844329Y-110373835D01*
X165984064Y-110403537D01*
X166180279Y-110396560D01*
X166283336Y-110369783D01*
X166396294Y-110296427D01*
X166472574Y-110166592D01*
X166522077Y-109933700D01*
X166205259Y-111424211D02*
X166324066Y-110865269D01*
X166264663Y-111144740D02*
X165286515Y-110936828D01*
X165446051Y-110873373D01*
X165559009Y-110800017D01*
X165625389Y-110716761D01*
X165039001Y-112101290D02*
X165138007Y-111635505D01*
X165613692Y-111687932D01*
X165557213Y-111724610D01*
X165490833Y-111807867D01*
X165441330Y-112040759D01*
X165468108Y-112143816D01*
X165504786Y-112200295D01*
X165588042Y-112266675D01*
X165820934Y-112316178D01*
X165923992Y-112289400D01*
X165980471Y-112252722D01*
X166046850Y-112169466D01*
X166096353Y-111936574D01*
X166069576Y-111833516D01*
X166032898Y-111777037D01*
%TO.C,D9*%
X292686626Y-72228588D02*
X291708479Y-72436500D01*
X291757981Y-72669392D01*
X291834262Y-72799227D01*
X291947220Y-72872583D01*
X292050277Y-72899360D01*
X292246491Y-72906336D01*
X292386227Y-72876635D01*
X292562640Y-72790454D01*
X292645896Y-72724074D01*
X292719252Y-72611116D01*
X292736129Y-72461480D01*
X292686626Y-72228588D01*
X292904438Y-73253314D02*
X292944041Y-73439628D01*
X292917263Y-73542685D01*
X292880585Y-73599164D01*
X292760651Y-73722023D01*
X292584238Y-73808204D01*
X292211610Y-73887408D01*
X292108553Y-73860631D01*
X292052074Y-73823953D01*
X291985694Y-73740697D01*
X291946092Y-73554383D01*
X291972869Y-73451325D01*
X292009547Y-73394846D01*
X292092804Y-73328467D01*
X292325696Y-73278964D01*
X292428753Y-73305741D01*
X292485232Y-73342419D01*
X292551612Y-73425676D01*
X292591214Y-73611989D01*
X292564437Y-73715047D01*
X292527759Y-73771526D01*
X292444503Y-73837905D01*
%TO.C,D6*%
X237550591Y-87710257D02*
X236572444Y-87918169D01*
X236621946Y-88151061D01*
X236698227Y-88280896D01*
X236811185Y-88354252D01*
X236914242Y-88381029D01*
X237110456Y-88388005D01*
X237250192Y-88358304D01*
X237426605Y-88272123D01*
X237509861Y-88205743D01*
X237583217Y-88092785D01*
X237600094Y-87943149D01*
X237550591Y-87710257D01*
X236869460Y-89315523D02*
X236829858Y-89129209D01*
X236856635Y-89026151D01*
X236893313Y-88969672D01*
X237013248Y-88846814D01*
X237189661Y-88760633D01*
X237562289Y-88681428D01*
X237665346Y-88708206D01*
X237721825Y-88744884D01*
X237788205Y-88828140D01*
X237827807Y-89014454D01*
X237801029Y-89117511D01*
X237764352Y-89173990D01*
X237681095Y-89240370D01*
X237448203Y-89289873D01*
X237345145Y-89263095D01*
X237288666Y-89226418D01*
X237222287Y-89143161D01*
X237182685Y-88956847D01*
X237209462Y-88853790D01*
X237246140Y-88797311D01*
X237329396Y-88730931D01*
%TO.C,D24*%
X143913354Y-124673942D02*
X142935206Y-124466030D01*
X142885704Y-124698923D01*
X142902580Y-124848559D01*
X142975936Y-124961517D01*
X143059193Y-125027896D01*
X143235606Y-125114077D01*
X143375341Y-125143779D01*
X143571556Y-125136802D01*
X143674613Y-125110025D01*
X143787571Y-125036669D01*
X143863851Y-124906834D01*
X143913354Y-124673942D01*
X142830352Y-125417401D02*
X142773873Y-125454079D01*
X142707494Y-125537335D01*
X142657991Y-125770227D01*
X142684768Y-125873285D01*
X142721446Y-125929764D01*
X142804702Y-125996143D01*
X142897859Y-126015944D01*
X143047495Y-125999068D01*
X143725243Y-125558933D01*
X143596536Y-126164453D01*
X142766228Y-126864257D02*
X143418326Y-127002865D01*
X142443103Y-126552160D02*
X143191283Y-126467777D01*
X143062575Y-127073296D01*
%TO.C,D27*%
X262569036Y-113787355D02*
X261590888Y-113995266D01*
X261640391Y-114228159D01*
X261716671Y-114357993D01*
X261829629Y-114431349D01*
X261932686Y-114458126D01*
X262128901Y-114465103D01*
X262268636Y-114435401D01*
X262445049Y-114349220D01*
X262528306Y-114282841D01*
X262601662Y-114169883D01*
X262618538Y-114020247D01*
X262569036Y-113787355D01*
X261882056Y-114907034D02*
X261845378Y-114963513D01*
X261818601Y-115066571D01*
X261868104Y-115299463D01*
X261934483Y-115382719D01*
X261990962Y-115419397D01*
X262094020Y-115446175D01*
X262187177Y-115426374D01*
X262317011Y-115350093D01*
X262757146Y-114672345D01*
X262885853Y-115277865D01*
X261977010Y-115811826D02*
X262115618Y-116463924D01*
X263004660Y-115836807D01*
%TO.C,D32*%
X170044305Y-161901636D02*
X169066157Y-161693724D01*
X169016655Y-161926617D01*
X169033531Y-162076253D01*
X169106887Y-162189211D01*
X169190144Y-162255590D01*
X169366557Y-162341771D01*
X169506292Y-162371473D01*
X169702507Y-162364496D01*
X169805564Y-162337719D01*
X169918522Y-162264363D01*
X169994802Y-162134528D01*
X170044305Y-161901636D01*
X168878047Y-162578715D02*
X168749340Y-163184235D01*
X169191271Y-162937390D01*
X169161570Y-163077126D01*
X169188347Y-163180183D01*
X169225025Y-163236662D01*
X169308281Y-163303042D01*
X169541173Y-163352545D01*
X169644231Y-163325767D01*
X169700710Y-163289089D01*
X169767089Y-163205833D01*
X169826493Y-162926362D01*
X169799715Y-162823305D01*
X169763038Y-162766826D01*
X168763292Y-163576664D02*
X168706813Y-163613342D01*
X168640434Y-163696598D01*
X168590931Y-163929490D01*
X168617708Y-164032548D01*
X168654386Y-164089027D01*
X168737642Y-164155406D01*
X168830799Y-164175208D01*
X168980435Y-164158331D01*
X169658183Y-163718196D01*
X169529476Y-164323716D01*
%TO.C,J1*%
X188279485Y-101084450D02*
X188279485Y-101798736D01*
X188327104Y-101941593D01*
X188422342Y-102036831D01*
X188565199Y-102084450D01*
X188660437Y-102084450D01*
X187279485Y-102084450D02*
X187850913Y-102084450D01*
X187565199Y-102084450D02*
X187565199Y-101084450D01*
X187660437Y-101227308D01*
X187755675Y-101322546D01*
X187850913Y-101370165D01*
%TO.C,C6*%
X201444068Y-142014212D02*
X201491687Y-142061831D01*
X201634544Y-142109450D01*
X201729782Y-142109450D01*
X201872640Y-142061831D01*
X201967878Y-141966593D01*
X202015497Y-141871355D01*
X202063116Y-141680879D01*
X202063116Y-141538022D01*
X202015497Y-141347546D01*
X201967878Y-141252308D01*
X201872640Y-141157070D01*
X201729782Y-141109450D01*
X201634544Y-141109450D01*
X201491687Y-141157070D01*
X201444068Y-141204689D01*
X200586925Y-141109450D02*
X200777402Y-141109450D01*
X200872640Y-141157070D01*
X200920259Y-141204689D01*
X201015497Y-141347546D01*
X201063116Y-141538022D01*
X201063116Y-141918974D01*
X201015497Y-142014212D01*
X200967878Y-142061831D01*
X200872640Y-142109450D01*
X200682163Y-142109450D01*
X200586925Y-142061831D01*
X200539306Y-142014212D01*
X200491687Y-141918974D01*
X200491687Y-141680879D01*
X200539306Y-141585641D01*
X200586925Y-141538022D01*
X200682163Y-141490403D01*
X200872640Y-141490403D01*
X200967878Y-141538022D01*
X201015497Y-141585641D01*
X201063116Y-141680879D01*
%TO.C,D4*%
X151609468Y-87775168D02*
X150631321Y-87567256D01*
X150581818Y-87800148D01*
X150598695Y-87949784D01*
X150672051Y-88062742D01*
X150755307Y-88129122D01*
X150931720Y-88215303D01*
X151071456Y-88245004D01*
X151267670Y-88238028D01*
X151370728Y-88211251D01*
X151483686Y-88137895D01*
X151559966Y-88008060D01*
X151609468Y-87775168D01*
X150660353Y-89033914D02*
X151312452Y-89172521D01*
X150337228Y-88721817D02*
X151085408Y-88637433D01*
X150956701Y-89242953D01*
%TO.C,Y1*%
X209853592Y-133933260D02*
X209853592Y-134409450D01*
X210186925Y-133409450D02*
X209853592Y-133933260D01*
X209520259Y-133409450D01*
X208663116Y-134409450D02*
X209234544Y-134409450D01*
X208948830Y-134409450D02*
X208948830Y-133409450D01*
X209044068Y-133552308D01*
X209139306Y-133647546D01*
X209234544Y-133695165D01*
%TO.C,D19*%
X296548339Y-90396517D02*
X295570191Y-90604428D01*
X295619694Y-90837321D01*
X295695974Y-90967155D01*
X295808932Y-91040511D01*
X295911989Y-91067288D01*
X296108204Y-91074265D01*
X296247939Y-91044563D01*
X296424352Y-90958382D01*
X296507609Y-90892003D01*
X296580965Y-90779045D01*
X296597841Y-90629409D01*
X296548339Y-90396517D01*
X296865156Y-91887027D02*
X296746350Y-91328086D01*
X296805753Y-91607556D02*
X295827606Y-91815468D01*
X295947540Y-91692610D01*
X296020896Y-91579652D01*
X296047673Y-91476594D01*
X296964162Y-92352812D02*
X297003764Y-92539126D01*
X296976987Y-92642183D01*
X296940309Y-92698662D01*
X296820375Y-92821521D01*
X296643961Y-92907701D01*
X296271334Y-92986906D01*
X296168276Y-92960128D01*
X296111797Y-92923451D01*
X296045418Y-92840194D01*
X296005816Y-92653880D01*
X296032593Y-92550823D01*
X296069271Y-92494344D01*
X296152527Y-92427964D01*
X296385419Y-92378462D01*
X296488477Y-92405239D01*
X296544956Y-92441917D01*
X296611335Y-92525173D01*
X296650938Y-92711487D01*
X296624160Y-92814544D01*
X296587482Y-92871023D01*
X296504226Y-92937403D01*
%TO.C,C2*%
X203744068Y-130714212D02*
X203791687Y-130761831D01*
X203934544Y-130809450D01*
X204029782Y-130809450D01*
X204172640Y-130761831D01*
X204267878Y-130666593D01*
X204315497Y-130571355D01*
X204363116Y-130380879D01*
X204363116Y-130238022D01*
X204315497Y-130047546D01*
X204267878Y-129952308D01*
X204172640Y-129857070D01*
X204029782Y-129809450D01*
X203934544Y-129809450D01*
X203791687Y-129857070D01*
X203744068Y-129904689D01*
X203363116Y-129904689D02*
X203315497Y-129857070D01*
X203220259Y-129809450D01*
X202982163Y-129809450D01*
X202886925Y-129857070D01*
X202839306Y-129904689D01*
X202791687Y-129999927D01*
X202791687Y-130095165D01*
X202839306Y-130238022D01*
X203410735Y-130809450D01*
X202791687Y-130809450D01*
%TO.C,D10*%
X296127821Y-69940041D02*
X295919910Y-68961893D01*
X295687017Y-69011396D01*
X295557183Y-69087676D01*
X295483827Y-69200634D01*
X295457050Y-69303691D01*
X295450073Y-69499906D01*
X295479775Y-69639641D01*
X295565956Y-69816054D01*
X295632335Y-69899311D01*
X295745293Y-69972667D01*
X295894929Y-69989543D01*
X296127821Y-69940041D01*
X294637311Y-70256858D02*
X295196252Y-70138052D01*
X294916782Y-70197455D02*
X294708870Y-69219308D01*
X294831728Y-69339242D01*
X294944686Y-69412598D01*
X295047744Y-69439375D01*
X293823879Y-69407418D02*
X293730722Y-69427219D01*
X293647466Y-69493599D01*
X293610788Y-69550078D01*
X293584011Y-69653135D01*
X293577034Y-69849350D01*
X293626537Y-70082242D01*
X293712718Y-70258655D01*
X293779097Y-70341912D01*
X293835576Y-70378589D01*
X293938634Y-70405367D01*
X294031791Y-70385566D01*
X294115047Y-70319186D01*
X294151725Y-70262707D01*
X294178502Y-70159650D01*
X294185479Y-69963435D01*
X294135976Y-69730543D01*
X294049795Y-69554130D01*
X293983416Y-69470873D01*
X293926937Y-69434195D01*
X293823879Y-69407418D01*
%TO.C,D5*%
X170243180Y-91735885D02*
X169265033Y-91527973D01*
X169215530Y-91760865D01*
X169232407Y-91910501D01*
X169305763Y-92023459D01*
X169389019Y-92089839D01*
X169565432Y-92176020D01*
X169705168Y-92205721D01*
X169901382Y-92198745D01*
X170004440Y-92171968D01*
X170117398Y-92098612D01*
X170193678Y-91968777D01*
X170243180Y-91735885D01*
X168958116Y-92971905D02*
X169057121Y-92506121D01*
X169532806Y-92558548D01*
X169476327Y-92595226D01*
X169409948Y-92678482D01*
X169360445Y-92911374D01*
X169387222Y-93014432D01*
X169423900Y-93070911D01*
X169507157Y-93137290D01*
X169740049Y-93186793D01*
X169843106Y-93160016D01*
X169899585Y-93123338D01*
X169965965Y-93040082D01*
X170015468Y-92807189D01*
X169988690Y-92704132D01*
X169952012Y-92647653D01*
%TO.C,U2*%
X199839306Y-125209450D02*
X199839306Y-126018974D01*
X199791687Y-126114212D01*
X199744068Y-126161831D01*
X199648830Y-126209450D01*
X199458354Y-126209450D01*
X199363116Y-126161831D01*
X199315497Y-126114212D01*
X199267878Y-126018974D01*
X199267878Y-125209450D01*
X198839306Y-125304689D02*
X198791687Y-125257070D01*
X198696449Y-125209450D01*
X198458354Y-125209450D01*
X198363116Y-125257070D01*
X198315497Y-125304689D01*
X198267878Y-125399927D01*
X198267878Y-125495165D01*
X198315497Y-125638022D01*
X198886925Y-126209450D01*
X198267878Y-126209450D01*
%TO.C,D1*%
X96488002Y-72224962D02*
X95509855Y-72017050D01*
X95460352Y-72249942D01*
X95477229Y-72399578D01*
X95550585Y-72512536D01*
X95633841Y-72578916D01*
X95810254Y-72665097D01*
X95949990Y-72694798D01*
X96146204Y-72687822D01*
X96249262Y-72661045D01*
X96362220Y-72587689D01*
X96438500Y-72457854D01*
X96488002Y-72224962D01*
X96171185Y-73715472D02*
X96289991Y-73156531D01*
X96230588Y-73436002D02*
X95252440Y-73228090D01*
X95411977Y-73164635D01*
X95524935Y-73091279D01*
X95591314Y-73008022D01*
%TO.C,R3*%
X189114566Y-107171950D02*
X189447900Y-106695760D01*
X189685995Y-107171950D02*
X189685995Y-106171950D01*
X189305042Y-106171950D01*
X189209804Y-106219570D01*
X189162185Y-106267189D01*
X189114566Y-106362427D01*
X189114566Y-106505284D01*
X189162185Y-106600522D01*
X189209804Y-106648141D01*
X189305042Y-106695760D01*
X189685995Y-106695760D01*
X188781233Y-106171950D02*
X188162185Y-106171950D01*
X188495519Y-106552903D01*
X188352661Y-106552903D01*
X188257423Y-106600522D01*
X188209804Y-106648141D01*
X188162185Y-106743379D01*
X188162185Y-106981474D01*
X188209804Y-107076712D01*
X188257423Y-107124331D01*
X188352661Y-107171950D01*
X188638376Y-107171950D01*
X188733614Y-107124331D01*
X188781233Y-107076712D01*
%TO.C,D33*%
X237890076Y-157846121D02*
X236911928Y-158054032D01*
X236961431Y-158286925D01*
X237037711Y-158416759D01*
X237150669Y-158490115D01*
X237253726Y-158516892D01*
X237449941Y-158523869D01*
X237589676Y-158494167D01*
X237766089Y-158407986D01*
X237849346Y-158341607D01*
X237922702Y-158228649D01*
X237939578Y-158079013D01*
X237890076Y-157846121D01*
X237100039Y-158939023D02*
X237228746Y-159544543D01*
X237532070Y-159139289D01*
X237561771Y-159279025D01*
X237628151Y-159362281D01*
X237684630Y-159398959D01*
X237787687Y-159425736D01*
X238020580Y-159376233D01*
X238103836Y-159309854D01*
X238140514Y-159253375D01*
X238167291Y-159150317D01*
X238107888Y-158870847D01*
X238041508Y-158787590D01*
X237985029Y-158750912D01*
X237298050Y-159870592D02*
X237426757Y-160476112D01*
X237730081Y-160070858D01*
X237759782Y-160210594D01*
X237826162Y-160293850D01*
X237882641Y-160330528D01*
X237985698Y-160357305D01*
X238218591Y-160307803D01*
X238301847Y-160241423D01*
X238338525Y-160184944D01*
X238365302Y-160081886D01*
X238305899Y-159802416D01*
X238239519Y-159719159D01*
X238183040Y-159682481D01*
%TO.C,R4*%
X187044068Y-142609450D02*
X187377402Y-142133260D01*
X187615497Y-142609450D02*
X187615497Y-141609450D01*
X187234544Y-141609450D01*
X187139306Y-141657070D01*
X187091687Y-141704689D01*
X187044068Y-141799927D01*
X187044068Y-141942784D01*
X187091687Y-142038022D01*
X187139306Y-142085641D01*
X187234544Y-142133260D01*
X187615497Y-142133260D01*
X186186925Y-141942784D02*
X186186925Y-142609450D01*
X186425021Y-141561831D02*
X186663116Y-142276117D01*
X186044068Y-142276117D01*
%TO.C,D14*%
X147888364Y-105972982D02*
X146910216Y-105765070D01*
X146860714Y-105997963D01*
X146877590Y-106147599D01*
X146950946Y-106260557D01*
X147034203Y-106326936D01*
X147210616Y-106413117D01*
X147350351Y-106442819D01*
X147546566Y-106435842D01*
X147649623Y-106409065D01*
X147762581Y-106335709D01*
X147838861Y-106205874D01*
X147888364Y-105972982D01*
X147571546Y-107463493D02*
X147690353Y-106904551D01*
X147630950Y-107184022D02*
X146652802Y-106976110D01*
X146812338Y-106912655D01*
X146925296Y-106839299D01*
X146991676Y-106756043D01*
X146741238Y-108163297D02*
X147393336Y-108301905D01*
X146418113Y-107851200D02*
X147166293Y-107766817D01*
X147037585Y-108372336D01*
%TO.C,D17*%
X258608320Y-95153644D02*
X257630172Y-95361555D01*
X257679675Y-95594448D01*
X257755955Y-95724282D01*
X257868913Y-95797638D01*
X257971970Y-95824415D01*
X258168185Y-95831392D01*
X258307920Y-95801690D01*
X258484333Y-95715509D01*
X258567590Y-95649130D01*
X258640946Y-95536172D01*
X258657822Y-95386536D01*
X258608320Y-95153644D01*
X258925137Y-96644154D02*
X258806331Y-96085213D01*
X258865734Y-96364683D02*
X257887587Y-96572595D01*
X258007521Y-96449737D01*
X258080877Y-96336779D01*
X258107654Y-96233721D01*
X258016294Y-97178115D02*
X258154902Y-97830213D01*
X259043944Y-97203096D01*
%TO.C,D22*%
X108441767Y-108303756D02*
X107463619Y-108095844D01*
X107414117Y-108328737D01*
X107430993Y-108478373D01*
X107504349Y-108591331D01*
X107587606Y-108657710D01*
X107764019Y-108743891D01*
X107903754Y-108773593D01*
X108099969Y-108766616D01*
X108203026Y-108739839D01*
X108315984Y-108666483D01*
X108392264Y-108536648D01*
X108441767Y-108303756D01*
X107358765Y-109047215D02*
X107302286Y-109083893D01*
X107235907Y-109167149D01*
X107186404Y-109400041D01*
X107213181Y-109503099D01*
X107249859Y-109559578D01*
X107333115Y-109625957D01*
X107426272Y-109645758D01*
X107575908Y-109628882D01*
X108253656Y-109188747D01*
X108124949Y-109794267D01*
X107160754Y-109978784D02*
X107104275Y-110015462D01*
X107037896Y-110098718D01*
X106988393Y-110331610D01*
X107015170Y-110434668D01*
X107051848Y-110491147D01*
X107135104Y-110557526D01*
X107228261Y-110577328D01*
X107377897Y-110560451D01*
X108055645Y-110120316D01*
X107926938Y-110725836D01*
%TO.C,D30*%
X302290031Y-112818194D02*
X301311883Y-113026105D01*
X301361386Y-113258998D01*
X301437666Y-113388832D01*
X301550624Y-113462188D01*
X301653681Y-113488965D01*
X301849896Y-113495942D01*
X301989631Y-113466240D01*
X302166044Y-113380059D01*
X302249301Y-113313680D01*
X302322657Y-113200722D01*
X302339533Y-113051086D01*
X302290031Y-112818194D01*
X301499994Y-113911096D02*
X301628701Y-114516616D01*
X301932025Y-114111362D01*
X301961726Y-114251098D01*
X302028106Y-114334354D01*
X302084585Y-114371032D01*
X302187642Y-114397809D01*
X302420535Y-114348306D01*
X302503791Y-114281927D01*
X302540469Y-114225448D01*
X302567246Y-114122390D01*
X302507843Y-113842920D01*
X302441463Y-113759663D01*
X302384984Y-113722985D01*
X301757408Y-115122136D02*
X301777209Y-115215293D01*
X301843589Y-115298549D01*
X301900068Y-115335227D01*
X302003125Y-115362004D01*
X302199340Y-115368981D01*
X302432232Y-115319478D01*
X302608645Y-115233297D01*
X302691902Y-115166918D01*
X302728579Y-115110439D01*
X302755357Y-115007381D01*
X302735556Y-114914224D01*
X302669176Y-114830968D01*
X302612697Y-114794290D01*
X302509640Y-114767513D01*
X302313425Y-114760536D01*
X302080533Y-114810039D01*
X301904120Y-114896220D01*
X301820863Y-114962599D01*
X301784185Y-115019078D01*
X301757408Y-115122136D01*
%TO.C,D8*%
X273065332Y-71543105D02*
X272087185Y-71751017D01*
X272136687Y-71983909D01*
X272212968Y-72113744D01*
X272325926Y-72187100D01*
X272428983Y-72213877D01*
X272625197Y-72220853D01*
X272764933Y-72191152D01*
X272941346Y-72104971D01*
X273024602Y-72038591D01*
X273097958Y-71925633D01*
X273114835Y-71775997D01*
X273065332Y-71543105D01*
X272744004Y-72779795D02*
X272677625Y-72696538D01*
X272621146Y-72659861D01*
X272518088Y-72633083D01*
X272471510Y-72642984D01*
X272388253Y-72709363D01*
X272351575Y-72765842D01*
X272324798Y-72868900D01*
X272364400Y-73055214D01*
X272430780Y-73138470D01*
X272487259Y-73175148D01*
X272590316Y-73201925D01*
X272636895Y-73192025D01*
X272720151Y-73125645D01*
X272756829Y-73069166D01*
X272783606Y-72966109D01*
X272744004Y-72779795D01*
X272770781Y-72676737D01*
X272807459Y-72620258D01*
X272890716Y-72553879D01*
X273077030Y-72514276D01*
X273180087Y-72541054D01*
X273236566Y-72577732D01*
X273302946Y-72660988D01*
X273342548Y-72847302D01*
X273315770Y-72950359D01*
X273279093Y-73006838D01*
X273195836Y-73073218D01*
X273009522Y-73112820D01*
X272906465Y-73086043D01*
X272849986Y-73049365D01*
X272783606Y-72966109D01*
%TO.C,D26*%
X245373020Y-124511896D02*
X244394872Y-124719807D01*
X244444375Y-124952700D01*
X244520655Y-125082534D01*
X244633613Y-125155890D01*
X244736670Y-125182667D01*
X244932885Y-125189644D01*
X245072620Y-125159942D01*
X245249033Y-125073761D01*
X245332290Y-125007382D01*
X245405646Y-124894424D01*
X245422522Y-124744788D01*
X245373020Y-124511896D01*
X244686040Y-125631575D02*
X244649362Y-125688054D01*
X244622585Y-125791112D01*
X244672088Y-126024004D01*
X244738467Y-126107260D01*
X244794946Y-126143938D01*
X244898004Y-126170716D01*
X244991161Y-126150915D01*
X245120995Y-126074634D01*
X245561130Y-125396886D01*
X245689837Y-126002406D01*
X244889900Y-127048730D02*
X244850298Y-126862416D01*
X244877075Y-126759359D01*
X244913753Y-126702880D01*
X245033687Y-126580021D01*
X245210100Y-126493841D01*
X245582728Y-126414636D01*
X245685786Y-126441413D01*
X245742265Y-126478091D01*
X245808644Y-126561348D01*
X245848246Y-126747661D01*
X245821469Y-126850719D01*
X245784791Y-126907198D01*
X245701535Y-126973578D01*
X245468642Y-127023080D01*
X245365585Y-126996303D01*
X245309106Y-126959625D01*
X245242726Y-126876369D01*
X245203124Y-126690055D01*
X245229902Y-126586997D01*
X245266579Y-126530518D01*
X245349836Y-126464139D01*
%TO.C,C1*%
X201744068Y-136714212D02*
X201791687Y-136761831D01*
X201934544Y-136809450D01*
X202029782Y-136809450D01*
X202172640Y-136761831D01*
X202267878Y-136666593D01*
X202315497Y-136571355D01*
X202363116Y-136380879D01*
X202363116Y-136238022D01*
X202315497Y-136047546D01*
X202267878Y-135952308D01*
X202172640Y-135857070D01*
X202029782Y-135809450D01*
X201934544Y-135809450D01*
X201791687Y-135857070D01*
X201744068Y-135904689D01*
X200791687Y-136809450D02*
X201363116Y-136809450D01*
X201077402Y-136809450D02*
X201077402Y-135809450D01*
X201172640Y-135952308D01*
X201267878Y-136047546D01*
X201363116Y-136095165D01*
%TO.C,C4*%
X194444068Y-122314212D02*
X194491687Y-122361831D01*
X194634544Y-122409450D01*
X194729782Y-122409450D01*
X194872640Y-122361831D01*
X194967878Y-122266593D01*
X195015497Y-122171355D01*
X195063116Y-121980879D01*
X195063116Y-121838022D01*
X195015497Y-121647546D01*
X194967878Y-121552308D01*
X194872640Y-121457070D01*
X194729782Y-121409450D01*
X194634544Y-121409450D01*
X194491687Y-121457070D01*
X194444068Y-121504689D01*
X193586925Y-121742784D02*
X193586925Y-122409450D01*
X193825021Y-121361831D02*
X194063116Y-122076117D01*
X193444068Y-122076117D01*
%TO.C,D18*%
X276927045Y-89711035D02*
X275948897Y-89918946D01*
X275998400Y-90151839D01*
X276074680Y-90281673D01*
X276187638Y-90355029D01*
X276290695Y-90381806D01*
X276486910Y-90388783D01*
X276626645Y-90359081D01*
X276803058Y-90272900D01*
X276886315Y-90206521D01*
X276959671Y-90093563D01*
X276976547Y-89943927D01*
X276927045Y-89711035D01*
X277243862Y-91201545D02*
X277125056Y-90642604D01*
X277184459Y-90922074D02*
X276206312Y-91129986D01*
X276326246Y-91007128D01*
X276399602Y-90894170D01*
X276426379Y-90791112D01*
X276803728Y-91879293D02*
X276737348Y-91796037D01*
X276680869Y-91759359D01*
X276577812Y-91732582D01*
X276531233Y-91742482D01*
X276447977Y-91808862D01*
X276411299Y-91865341D01*
X276384522Y-91968398D01*
X276424124Y-92154712D01*
X276490503Y-92237969D01*
X276546982Y-92274646D01*
X276650040Y-92301424D01*
X276696618Y-92291523D01*
X276779875Y-92225144D01*
X276816553Y-92168665D01*
X276843330Y-92065607D01*
X276803728Y-91879293D01*
X276830505Y-91776236D01*
X276867183Y-91719757D01*
X276950439Y-91653377D01*
X277136753Y-91613775D01*
X277239811Y-91640552D01*
X277296290Y-91677230D01*
X277362669Y-91760487D01*
X277402271Y-91946800D01*
X277375494Y-92049858D01*
X277338816Y-92106337D01*
X277255560Y-92172717D01*
X277069246Y-92212319D01*
X276966188Y-92185541D01*
X276909709Y-92148864D01*
X276843330Y-92065607D01*
%TO.C,D23*%
X127075479Y-112264474D02*
X126097331Y-112056562D01*
X126047829Y-112289455D01*
X126064705Y-112439091D01*
X126138061Y-112552049D01*
X126221318Y-112618428D01*
X126397731Y-112704609D01*
X126537466Y-112734311D01*
X126733681Y-112727334D01*
X126836738Y-112700557D01*
X126949696Y-112627201D01*
X127025976Y-112497366D01*
X127075479Y-112264474D01*
X125992477Y-113007933D02*
X125935998Y-113044611D01*
X125869619Y-113127867D01*
X125820116Y-113360759D01*
X125846893Y-113463817D01*
X125883571Y-113520296D01*
X125966827Y-113586675D01*
X126059984Y-113606476D01*
X126209620Y-113589600D01*
X126887368Y-113149465D01*
X126758661Y-113754985D01*
X125711210Y-113873122D02*
X125582502Y-114478642D01*
X126024434Y-114231797D01*
X125994732Y-114371533D01*
X126021510Y-114474590D01*
X126058188Y-114531069D01*
X126141444Y-114597449D01*
X126374336Y-114646952D01*
X126477394Y-114620174D01*
X126533873Y-114583496D01*
X126600252Y-114500240D01*
X126659656Y-114220769D01*
X126632878Y-114117712D01*
X126596200Y-114061233D01*
%TO.C,D2*%
X116123587Y-71472230D02*
X115145440Y-71264318D01*
X115095937Y-71497210D01*
X115112814Y-71646846D01*
X115186170Y-71759804D01*
X115269426Y-71826184D01*
X115445839Y-71912365D01*
X115585575Y-71942066D01*
X115781789Y-71935090D01*
X115884847Y-71908313D01*
X115997805Y-71834957D01*
X116074085Y-71705122D01*
X116123587Y-71472230D01*
X115040586Y-72215688D02*
X114984107Y-72252366D01*
X114917727Y-72335623D01*
X114868224Y-72568515D01*
X114895002Y-72671572D01*
X114931680Y-72728051D01*
X115014936Y-72794431D01*
X115108093Y-72814232D01*
X115257729Y-72797355D01*
X115935477Y-72357220D01*
X115806770Y-72962740D01*
%TO.C,C5*%
X183044068Y-129314212D02*
X183091687Y-129361831D01*
X183234544Y-129409450D01*
X183329782Y-129409450D01*
X183472640Y-129361831D01*
X183567878Y-129266593D01*
X183615497Y-129171355D01*
X183663116Y-128980879D01*
X183663116Y-128838022D01*
X183615497Y-128647546D01*
X183567878Y-128552308D01*
X183472640Y-128457070D01*
X183329782Y-128409450D01*
X183234544Y-128409450D01*
X183091687Y-128457070D01*
X183044068Y-128504689D01*
X182139306Y-128409450D02*
X182615497Y-128409450D01*
X182663116Y-128885641D01*
X182615497Y-128838022D01*
X182520259Y-128790403D01*
X182282163Y-128790403D01*
X182186925Y-128838022D01*
X182139306Y-128885641D01*
X182091687Y-128980879D01*
X182091687Y-129218974D01*
X182139306Y-129314212D01*
X182186925Y-129361831D01*
X182282163Y-129409450D01*
X182520259Y-129409450D01*
X182615497Y-129361831D01*
X182663116Y-129314212D01*
%TO.C,D20*%
X300198583Y-88630535D02*
X299990672Y-87652387D01*
X299757779Y-87701890D01*
X299627945Y-87778170D01*
X299554589Y-87891128D01*
X299527812Y-87994185D01*
X299520835Y-88190400D01*
X299550537Y-88330135D01*
X299636718Y-88506548D01*
X299703097Y-88589805D01*
X299816055Y-88663161D01*
X299965691Y-88680037D01*
X300198583Y-88630535D01*
X299078904Y-87943555D02*
X299022425Y-87906877D01*
X298919367Y-87880100D01*
X298686475Y-87929603D01*
X298603219Y-87995982D01*
X298566541Y-88052461D01*
X298539763Y-88155519D01*
X298559564Y-88248676D01*
X298635845Y-88378510D01*
X299313593Y-88818645D01*
X298708073Y-88947352D01*
X297894641Y-88097912D02*
X297801484Y-88117713D01*
X297718228Y-88184093D01*
X297681550Y-88240572D01*
X297654773Y-88343629D01*
X297647796Y-88539844D01*
X297697299Y-88772736D01*
X297783480Y-88949149D01*
X297849859Y-89032406D01*
X297906338Y-89069083D01*
X298009396Y-89095861D01*
X298102553Y-89076060D01*
X298185809Y-89009680D01*
X298222487Y-88953201D01*
X298249264Y-88850144D01*
X298256241Y-88653929D01*
X298206738Y-88421037D01*
X298120557Y-88244624D01*
X298054178Y-88161367D01*
X297997699Y-88124689D01*
X297894641Y-88097912D01*
%TO.C,D16*%
X241412302Y-105878184D02*
X240434154Y-106086095D01*
X240483657Y-106318988D01*
X240559937Y-106448822D01*
X240672895Y-106522178D01*
X240775952Y-106548955D01*
X240972167Y-106555932D01*
X241111902Y-106526230D01*
X241288315Y-106440049D01*
X241371572Y-106373670D01*
X241444928Y-106260712D01*
X241461804Y-106111076D01*
X241412302Y-105878184D01*
X241729119Y-107368694D02*
X241610313Y-106809753D01*
X241669716Y-107089223D02*
X240691569Y-107297135D01*
X240811503Y-107174277D01*
X240884859Y-107061319D01*
X240911636Y-106958261D01*
X240929182Y-108415018D02*
X240889580Y-108228704D01*
X240916357Y-108125647D01*
X240953035Y-108069168D01*
X241072969Y-107946309D01*
X241249382Y-107860129D01*
X241622010Y-107780924D01*
X241725068Y-107807701D01*
X241781547Y-107844379D01*
X241847926Y-107927636D01*
X241887528Y-108113949D01*
X241860751Y-108217007D01*
X241824073Y-108273486D01*
X241740817Y-108339866D01*
X241507924Y-108389368D01*
X241404867Y-108362591D01*
X241348388Y-108325913D01*
X241282008Y-108242657D01*
X241242406Y-108056343D01*
X241269184Y-107953285D01*
X241305861Y-107896806D01*
X241389118Y-107830427D01*
%TO.C,R1*%
X207350318Y-126184450D02*
X207683652Y-125708260D01*
X207921747Y-126184450D02*
X207921747Y-125184450D01*
X207540794Y-125184450D01*
X207445556Y-125232070D01*
X207397937Y-125279689D01*
X207350318Y-125374927D01*
X207350318Y-125517784D01*
X207397937Y-125613022D01*
X207445556Y-125660641D01*
X207540794Y-125708260D01*
X207921747Y-125708260D01*
X206397937Y-126184450D02*
X206969366Y-126184450D01*
X206683652Y-126184450D02*
X206683652Y-125184450D01*
X206778890Y-125327308D01*
X206874128Y-125422546D01*
X206969366Y-125470165D01*
%TO.C,R2*%
X195514566Y-107171950D02*
X195847900Y-106695760D01*
X196085995Y-107171950D02*
X196085995Y-106171950D01*
X195705042Y-106171950D01*
X195609804Y-106219570D01*
X195562185Y-106267189D01*
X195514566Y-106362427D01*
X195514566Y-106505284D01*
X195562185Y-106600522D01*
X195609804Y-106648141D01*
X195705042Y-106695760D01*
X196085995Y-106695760D01*
X195133614Y-106267189D02*
X195085995Y-106219570D01*
X194990757Y-106171950D01*
X194752661Y-106171950D01*
X194657423Y-106219570D01*
X194609804Y-106267189D01*
X194562185Y-106362427D01*
X194562185Y-106457665D01*
X194609804Y-106600522D01*
X195181233Y-107171950D01*
X194562185Y-107171950D01*
%TO.C,D7*%
X254746608Y-76985716D02*
X253768461Y-77193628D01*
X253817963Y-77426520D01*
X253894244Y-77556355D01*
X254007202Y-77629711D01*
X254110259Y-77656488D01*
X254306473Y-77663464D01*
X254446209Y-77633763D01*
X254622622Y-77547582D01*
X254705878Y-77481202D01*
X254779234Y-77368244D01*
X254796111Y-77218608D01*
X254746608Y-76985716D01*
X253956571Y-78078619D02*
X254095179Y-78730717D01*
X254984222Y-78103599D01*
%TO.C,D3*%
X134757300Y-75432947D02*
X133779153Y-75225035D01*
X133729650Y-75457927D01*
X133746527Y-75607563D01*
X133819883Y-75720521D01*
X133903139Y-75786901D01*
X134079552Y-75873082D01*
X134219288Y-75902783D01*
X134415502Y-75895807D01*
X134518560Y-75869030D01*
X134631518Y-75795674D01*
X134707798Y-75665839D01*
X134757300Y-75432947D01*
X133591042Y-76110026D02*
X133462335Y-76715546D01*
X133904267Y-76468701D01*
X133874565Y-76608436D01*
X133901342Y-76711494D01*
X133938020Y-76767973D01*
X134021277Y-76834352D01*
X134254169Y-76883855D01*
X134357226Y-76857078D01*
X134413705Y-76820400D01*
X134480085Y-76737144D01*
X134539488Y-76457673D01*
X134512711Y-76354615D01*
X134476033Y-76298136D01*
%TO.C,D34*%
X265539665Y-157107890D02*
X265331754Y-156129742D01*
X265098861Y-156179245D01*
X264969027Y-156255525D01*
X264895671Y-156368483D01*
X264868894Y-156471540D01*
X264861917Y-156667755D01*
X264891619Y-156807490D01*
X264977800Y-156983903D01*
X265044179Y-157067160D01*
X265157137Y-157140516D01*
X265306773Y-157157392D01*
X265539665Y-157107890D01*
X264446763Y-156317853D02*
X263841243Y-156446560D01*
X264246497Y-156749884D01*
X264106761Y-156779585D01*
X264023505Y-156845965D01*
X263986827Y-156902444D01*
X263960050Y-157005501D01*
X264009553Y-157238394D01*
X264075932Y-157321650D01*
X264132411Y-157358328D01*
X264235469Y-157385105D01*
X264514939Y-157325702D01*
X264598196Y-157259322D01*
X264634874Y-157202843D01*
X263072135Y-156950819D02*
X263210743Y-157602917D01*
X263225823Y-156528689D02*
X263607223Y-157177863D01*
X263001703Y-157306570D01*
%TO.C,D31*%
X142093738Y-155960560D02*
X141115590Y-155752648D01*
X141066088Y-155985541D01*
X141082964Y-156135177D01*
X141156320Y-156248135D01*
X141239577Y-156314514D01*
X141415990Y-156400695D01*
X141555725Y-156430397D01*
X141751940Y-156423420D01*
X141854997Y-156396643D01*
X141967955Y-156323287D01*
X142044235Y-156193452D01*
X142093738Y-155960560D01*
X140927480Y-156637639D02*
X140798773Y-157243159D01*
X141240704Y-156996314D01*
X141211003Y-157136050D01*
X141237780Y-157239107D01*
X141274458Y-157295586D01*
X141357714Y-157361966D01*
X141590606Y-157411469D01*
X141693664Y-157384691D01*
X141750143Y-157348013D01*
X141816522Y-157264757D01*
X141875926Y-156985286D01*
X141849148Y-156882229D01*
X141812471Y-156825750D01*
X141578909Y-158382640D02*
X141697716Y-157823698D01*
X141638312Y-158103169D02*
X140660165Y-157895257D01*
X140819701Y-157831802D01*
X140932659Y-157758446D01*
X140999039Y-157675190D01*
%TO.C,D25*%
X162561359Y-128567412D02*
X161583211Y-128359500D01*
X161533709Y-128592393D01*
X161550585Y-128742029D01*
X161623941Y-128854987D01*
X161707198Y-128921366D01*
X161883611Y-129007547D01*
X162023346Y-129037249D01*
X162219561Y-129030272D01*
X162322618Y-129003495D01*
X162435576Y-128930139D01*
X162511856Y-128800304D01*
X162561359Y-128567412D01*
X161478357Y-129310871D02*
X161421878Y-129347549D01*
X161355499Y-129430805D01*
X161305996Y-129663697D01*
X161332773Y-129766755D01*
X161369451Y-129823234D01*
X161452707Y-129889613D01*
X161545864Y-129909414D01*
X161695500Y-129892538D01*
X162373248Y-129452403D01*
X162244541Y-130057923D01*
X161078283Y-130735002D02*
X161177289Y-130269217D01*
X161652974Y-130321644D01*
X161596495Y-130358322D01*
X161530115Y-130441579D01*
X161480612Y-130674471D01*
X161507390Y-130777528D01*
X161544068Y-130834007D01*
X161627324Y-130900387D01*
X161860216Y-130949890D01*
X161963274Y-130923112D01*
X162019753Y-130886434D01*
X162086132Y-130803178D01*
X162135635Y-130570286D01*
X162108858Y-130467228D01*
X162072180Y-130410749D01*
%TO.C,D11*%
X92626291Y-90392889D02*
X91648143Y-90184977D01*
X91598641Y-90417870D01*
X91615517Y-90567506D01*
X91688873Y-90680464D01*
X91772130Y-90746843D01*
X91948543Y-90833024D01*
X92088278Y-90862726D01*
X92284493Y-90855749D01*
X92387550Y-90828972D01*
X92500508Y-90755616D01*
X92576788Y-90625781D01*
X92626291Y-90392889D01*
X92309473Y-91883400D02*
X92428280Y-91324458D01*
X92368877Y-91603929D02*
X91390729Y-91396017D01*
X91550265Y-91332562D01*
X91663223Y-91259206D01*
X91729603Y-91175950D01*
X92111462Y-92814969D02*
X92230269Y-92256027D01*
X92170865Y-92535498D02*
X91192718Y-92327586D01*
X91352254Y-92264131D01*
X91465212Y-92190775D01*
X91531592Y-92107519D01*
%TO.C,D21*%
X88806182Y-109056487D02*
X87828034Y-108848575D01*
X87778532Y-109081468D01*
X87795408Y-109231104D01*
X87868764Y-109344062D01*
X87952021Y-109410441D01*
X88128434Y-109496622D01*
X88268169Y-109526324D01*
X88464384Y-109519347D01*
X88567441Y-109492570D01*
X88680399Y-109419214D01*
X88756679Y-109289379D01*
X88806182Y-109056487D01*
X87723180Y-109799946D02*
X87666701Y-109836624D01*
X87600322Y-109919880D01*
X87550819Y-110152772D01*
X87577596Y-110255830D01*
X87614274Y-110312309D01*
X87697530Y-110378688D01*
X87790687Y-110398489D01*
X87940323Y-110381613D01*
X88618071Y-109941478D01*
X88489364Y-110546998D01*
X88291353Y-111478567D02*
X88410160Y-110919625D01*
X88350756Y-111199096D02*
X87372609Y-110991184D01*
X87532145Y-110927729D01*
X87645103Y-110854373D01*
X87711483Y-110771117D01*
%TO.C,C8*%
X189244068Y-122214212D02*
X189291687Y-122261831D01*
X189434544Y-122309450D01*
X189529782Y-122309450D01*
X189672640Y-122261831D01*
X189767878Y-122166593D01*
X189815497Y-122071355D01*
X189863116Y-121880879D01*
X189863116Y-121738022D01*
X189815497Y-121547546D01*
X189767878Y-121452308D01*
X189672640Y-121357070D01*
X189529782Y-121309450D01*
X189434544Y-121309450D01*
X189291687Y-121357070D01*
X189244068Y-121404689D01*
X188672640Y-121738022D02*
X188767878Y-121690403D01*
X188815497Y-121642784D01*
X188863116Y-121547546D01*
X188863116Y-121499927D01*
X188815497Y-121404689D01*
X188767878Y-121357070D01*
X188672640Y-121309450D01*
X188482163Y-121309450D01*
X188386925Y-121357070D01*
X188339306Y-121404689D01*
X188291687Y-121499927D01*
X188291687Y-121547546D01*
X188339306Y-121642784D01*
X188386925Y-121690403D01*
X188482163Y-121738022D01*
X188672640Y-121738022D01*
X188767878Y-121785641D01*
X188815497Y-121833260D01*
X188863116Y-121928498D01*
X188863116Y-122118974D01*
X188815497Y-122214212D01*
X188767878Y-122261831D01*
X188672640Y-122309450D01*
X188482163Y-122309450D01*
X188386925Y-122261831D01*
X188339306Y-122214212D01*
X188291687Y-122118974D01*
X188291687Y-121928498D01*
X188339306Y-121833260D01*
X188386925Y-121785641D01*
X188482163Y-121738022D01*
%TO.C,D13*%
X130895587Y-93600875D02*
X129917439Y-93392963D01*
X129867937Y-93625856D01*
X129884813Y-93775492D01*
X129958169Y-93888450D01*
X130041426Y-93954829D01*
X130217839Y-94041010D01*
X130357574Y-94070712D01*
X130553789Y-94063735D01*
X130656846Y-94036958D01*
X130769804Y-93963602D01*
X130846084Y-93833767D01*
X130895587Y-93600875D01*
X130578769Y-95091386D02*
X130697576Y-94532444D01*
X130638173Y-94811915D02*
X129660025Y-94604003D01*
X129819561Y-94540548D01*
X129932519Y-94467192D01*
X129998899Y-94383936D01*
X129531318Y-95209523D02*
X129402610Y-95815043D01*
X129844542Y-95568198D01*
X129814840Y-95707934D01*
X129841618Y-95810991D01*
X129878296Y-95867470D01*
X129961552Y-95933850D01*
X130194444Y-95983353D01*
X130297502Y-95956575D01*
X130353981Y-95919897D01*
X130420360Y-95836641D01*
X130479764Y-95557170D01*
X130452986Y-95454113D01*
X130416308Y-95397634D01*
%TO.C,C7*%
X185150318Y-140789212D02*
X185197937Y-140836831D01*
X185340794Y-140884450D01*
X185436032Y-140884450D01*
X185578890Y-140836831D01*
X185674128Y-140741593D01*
X185721747Y-140646355D01*
X185769366Y-140455879D01*
X185769366Y-140313022D01*
X185721747Y-140122546D01*
X185674128Y-140027308D01*
X185578890Y-139932070D01*
X185436032Y-139884450D01*
X185340794Y-139884450D01*
X185197937Y-139932070D01*
X185150318Y-139979689D01*
X184816985Y-139884450D02*
X184150318Y-139884450D01*
X184578890Y-140884450D01*
%TO.C,D28*%
X280887763Y-108344745D02*
X279909615Y-108552656D01*
X279959118Y-108785549D01*
X280035398Y-108915383D01*
X280148356Y-108988739D01*
X280251413Y-109015516D01*
X280447628Y-109022493D01*
X280587363Y-108992791D01*
X280763776Y-108906610D01*
X280847033Y-108840231D01*
X280920389Y-108727273D01*
X280937265Y-108577637D01*
X280887763Y-108344745D01*
X280200783Y-109464424D02*
X280164105Y-109520903D01*
X280137328Y-109623961D01*
X280186831Y-109856853D01*
X280253210Y-109940109D01*
X280309689Y-109976787D01*
X280412747Y-110003565D01*
X280505904Y-109983764D01*
X280635738Y-109907483D01*
X281075873Y-109229735D01*
X281204580Y-109835255D01*
X280764446Y-110513003D02*
X280698066Y-110429747D01*
X280641587Y-110393069D01*
X280538530Y-110366292D01*
X280491951Y-110376192D01*
X280408695Y-110442572D01*
X280372017Y-110499051D01*
X280345240Y-110602108D01*
X280384842Y-110788422D01*
X280451221Y-110871679D01*
X280507700Y-110908356D01*
X280610758Y-110935134D01*
X280657336Y-110925233D01*
X280740593Y-110858854D01*
X280777271Y-110802375D01*
X280804048Y-110699317D01*
X280764446Y-110513003D01*
X280791223Y-110409946D01*
X280827901Y-110353467D01*
X280911157Y-110287087D01*
X281097471Y-110247485D01*
X281200529Y-110274262D01*
X281257008Y-110310940D01*
X281323387Y-110394197D01*
X281362989Y-110580510D01*
X281336212Y-110683568D01*
X281299534Y-110740047D01*
X281216278Y-110806427D01*
X281029964Y-110846029D01*
X280926906Y-110819251D01*
X280870427Y-110782574D01*
X280804048Y-110699317D01*
%TO.C,D12*%
X112261876Y-89640156D02*
X111283728Y-89432244D01*
X111234226Y-89665137D01*
X111251102Y-89814773D01*
X111324458Y-89927731D01*
X111407715Y-89994110D01*
X111584128Y-90080291D01*
X111723863Y-90109993D01*
X111920078Y-90103016D01*
X112023135Y-90076239D01*
X112136093Y-90002883D01*
X112212373Y-89873048D01*
X112261876Y-89640156D01*
X111945058Y-91130667D02*
X112063865Y-90571725D01*
X112004462Y-90851196D02*
X111026314Y-90643284D01*
X111185850Y-90579829D01*
X111298808Y-90506473D01*
X111365188Y-90423217D01*
X110980863Y-91315184D02*
X110924384Y-91351862D01*
X110858005Y-91435118D01*
X110808502Y-91668010D01*
X110835279Y-91771068D01*
X110871957Y-91827547D01*
X110955213Y-91893926D01*
X111048370Y-91913728D01*
X111198006Y-91896851D01*
X111875754Y-91456716D01*
X111747047Y-92062236D01*
D11*
%TO.C,SW1*%
X204496152Y-105012070D02*
X204986152Y-105502070D01*
X201596152Y-110452070D02*
X201106152Y-109962070D01*
X204496152Y-110452070D02*
X201596152Y-110452070D01*
X200326152Y-108772070D02*
X200326152Y-106692070D01*
X204496152Y-110452070D02*
X204986152Y-109962070D01*
X201596152Y-105012070D02*
X201106152Y-105502070D01*
X205766152Y-108772070D02*
X205766152Y-106692070D01*
X204496152Y-105012070D02*
X201596152Y-105012070D01*
%TO.C,D29*%
X298821097Y-108074577D02*
X298010241Y-104259802D01*
X296864802Y-108490401D02*
X296053946Y-104675625D01*
X298821097Y-108074577D02*
X296864802Y-108490401D01*
%TO.C,D15*%
X164381169Y-113020317D02*
X165192025Y-109205541D01*
X162424874Y-112604493D02*
X163235730Y-108789718D01*
X164381169Y-113020317D02*
X162424874Y-112604493D01*
%TO.C,D9*%
X288943368Y-71222976D02*
X288132512Y-67408200D01*
X290899663Y-70807152D02*
X290088807Y-66992377D01*
X290899663Y-70807152D02*
X288943368Y-71222976D01*
%TO.C,D6*%
X236751209Y-90935022D02*
X234794914Y-91350846D01*
X236751209Y-90935022D02*
X235940353Y-87120247D01*
X234794914Y-91350846D02*
X233984058Y-87536070D01*
%TO.C,D24*%
X141772446Y-127760559D02*
X139816151Y-127344735D01*
X139816151Y-127344735D02*
X140627007Y-123529960D01*
X141772446Y-127760559D02*
X142583302Y-123945783D01*
%TO.C,D27*%
X261383064Y-124812831D02*
X260572208Y-120998055D01*
X263339359Y-124397007D02*
X262528503Y-120582232D01*
X263339359Y-124397007D02*
X261383064Y-124812831D01*
%TO.C,D32*%
X167903397Y-164988253D02*
X165947102Y-164572429D01*
X165947102Y-164572429D02*
X166757958Y-160757654D01*
X167903397Y-164988253D02*
X168714253Y-161173477D01*
D10*
%TO.C,J1*%
X189047900Y-99669570D02*
X189047900Y-102069570D01*
X194047900Y-97869570D02*
X190047900Y-97869570D01*
X195047900Y-102069570D02*
X195047900Y-99669570D01*
X194047900Y-102069570D02*
X195047900Y-102069570D01*
X189047900Y-102069570D02*
X190047900Y-102069570D01*
D11*
%TO.C,C6*%
X198122400Y-142367070D02*
X198644904Y-142367070D01*
X198122400Y-140897070D02*
X198644904Y-140897070D01*
%TO.C,D4*%
X149567566Y-90396000D02*
X147611271Y-89980176D01*
X149567566Y-90396000D02*
X150378422Y-86581224D01*
X147611271Y-89980176D02*
X148422127Y-86165401D01*
%TO.C,Y1*%
X208427402Y-135957070D02*
X205127402Y-135957070D01*
X205127402Y-135957070D02*
X205127402Y-131957070D01*
%TO.C,D19*%
X292904086Y-89856689D02*
X292093230Y-86041913D01*
X294860381Y-89440865D02*
X294049525Y-85626090D01*
X294860381Y-89440865D02*
X292904086Y-89856689D01*
%TO.C,C2*%
X202842402Y-132495818D02*
X202842402Y-133018322D01*
X204312402Y-132495818D02*
X204312402Y-133018322D01*
%TO.C,D10*%
X295801411Y-70655081D02*
X296612267Y-74469857D01*
X293845116Y-71070905D02*
X294655972Y-74885680D01*
X293845116Y-71070905D02*
X295801411Y-70655081D01*
%TO.C,D5*%
X168201278Y-94356717D02*
X169012134Y-90541941D01*
X166244983Y-93940893D02*
X167055839Y-90126118D01*
X168201278Y-94356717D02*
X166244983Y-93940893D01*
D10*
%TO.C,U2*%
X188202402Y-127982070D02*
X188777402Y-127982070D01*
X198552402Y-138332070D02*
X198552402Y-137657070D01*
X188202402Y-138332070D02*
X188877402Y-138332070D01*
X198552402Y-127982070D02*
X198552402Y-128657070D01*
X198552402Y-127982070D02*
X197877402Y-127982070D01*
X188202402Y-127982070D02*
X188202402Y-128657070D01*
X188777402Y-127982070D02*
X188777402Y-126707070D01*
X188202402Y-138332070D02*
X188202402Y-137657070D01*
X198552402Y-138332070D02*
X197877402Y-138332070D01*
D11*
%TO.C,D1*%
X92678850Y-83160048D02*
X90722555Y-82744224D01*
X90722555Y-82744224D02*
X91533411Y-78929449D01*
X92678850Y-83160048D02*
X93489706Y-79345272D01*
%TO.C,R3*%
X191582900Y-106492506D02*
X191582900Y-106946634D01*
X190112900Y-106492506D02*
X190112900Y-106946634D01*
%TO.C,D33*%
X237189699Y-161536670D02*
X235233404Y-161952494D01*
X237189699Y-161536670D02*
X236378843Y-157721895D01*
X235233404Y-161952494D02*
X234422548Y-158137718D01*
%TO.C,R4*%
X188048652Y-141905006D02*
X188048652Y-142359134D01*
X189518652Y-141905006D02*
X189518652Y-142359134D01*
%TO.C,D14*%
X145747456Y-109059599D02*
X146558312Y-105244823D01*
X145747456Y-109059599D02*
X143791161Y-108643775D01*
X143791161Y-108643775D02*
X144602017Y-104829000D01*
%TO.C,D17*%
X257422348Y-106179120D02*
X256611492Y-102364344D01*
X259378643Y-105763296D02*
X257422348Y-106179120D01*
X259378643Y-105763296D02*
X258567787Y-101948521D01*
%TO.C,D22*%
X106300859Y-111390373D02*
X104344564Y-110974549D01*
X106300859Y-111390373D02*
X107111715Y-107575597D01*
X104344564Y-110974549D02*
X105155420Y-107159774D01*
%TO.C,D30*%
X301766551Y-108338330D02*
X303722846Y-107922506D01*
X303722846Y-107922506D02*
X304533702Y-111737282D01*
X301766551Y-108338330D02*
X302577407Y-112153105D01*
%TO.C,D8*%
X272265950Y-74767870D02*
X271455094Y-70953095D01*
X272265950Y-74767870D02*
X270309655Y-75183694D01*
X270309655Y-75183694D02*
X269498799Y-71368918D01*
%TO.C,D26*%
X242716348Y-128618269D02*
X241905492Y-124803493D01*
X244672643Y-128202445D02*
X242716348Y-128618269D01*
X244672643Y-128202445D02*
X243861787Y-124387670D01*
%TO.C,C1*%
X204312402Y-136618322D02*
X204312402Y-136095818D01*
X202842402Y-136618322D02*
X202842402Y-136095818D01*
%TO.C,C4*%
X194022400Y-120967070D02*
X194544904Y-120967070D01*
X194022400Y-119497070D02*
X194544904Y-119497070D01*
%TO.C,D18*%
X276226668Y-93401584D02*
X274270373Y-93817408D01*
X276226668Y-93401584D02*
X275415812Y-89586809D01*
X274270373Y-93817408D02*
X273459517Y-90002632D01*
%TO.C,D23*%
X124934571Y-115351091D02*
X125745427Y-111536315D01*
X124934571Y-115351091D02*
X122978276Y-114935267D01*
X122978276Y-114935267D02*
X123789132Y-111120492D01*
%TO.C,D2*%
X114081685Y-74093062D02*
X112125390Y-73677238D01*
X114081685Y-74093062D02*
X114892541Y-70278286D01*
X112125390Y-73677238D02*
X112936246Y-69862463D01*
%TO.C,C5*%
X184242402Y-128695818D02*
X184242402Y-129218322D01*
X185712402Y-128695818D02*
X185712402Y-129218322D01*
%TO.C,D20*%
X299762128Y-89288793D02*
X300572984Y-93103569D01*
X297805833Y-89704617D02*
X298616689Y-93519392D01*
X297805833Y-89704617D02*
X299762128Y-89288793D01*
%TO.C,D16*%
X240711925Y-109568733D02*
X239901069Y-105753958D01*
X240711925Y-109568733D02*
X238755630Y-109984557D01*
X238755630Y-109984557D02*
X237944774Y-106169781D01*
%TO.C,R1*%
X204356588Y-126467070D02*
X204810716Y-126467070D01*
X204356588Y-124997070D02*
X204810716Y-124997070D01*
%TO.C,R2*%
X193981152Y-106505006D02*
X193981152Y-106959134D01*
X192511152Y-106505006D02*
X192511152Y-106959134D01*
%TO.C,D7*%
X255417926Y-87129584D02*
X253461631Y-87545408D01*
X253461631Y-87545408D02*
X252650775Y-83730632D01*
X255417926Y-87129584D02*
X254607070Y-83314809D01*
%TO.C,D3*%
X132715398Y-78053779D02*
X130759103Y-77637955D01*
X130759103Y-77637955D02*
X131569959Y-73823180D01*
X132715398Y-78053779D02*
X133526254Y-74239003D01*
%TO.C,D34*%
X263183971Y-156011417D02*
X262373115Y-152196641D01*
X265140266Y-155595593D02*
X263183971Y-156011417D01*
X265140266Y-155595593D02*
X264329410Y-151780818D01*
%TO.C,D31*%
X139952830Y-159047177D02*
X137996535Y-158631353D01*
X139952830Y-159047177D02*
X140763686Y-155232401D01*
X137996535Y-158631353D02*
X138807391Y-154816578D01*
%TO.C,D25*%
X160420451Y-131654029D02*
X158464156Y-131238205D01*
X158464156Y-131238205D02*
X159275012Y-127423430D01*
X160420451Y-131654029D02*
X161231307Y-127839253D01*
%TO.C,D11*%
X88718133Y-101793760D02*
X86761838Y-101377936D01*
X88718133Y-101793760D02*
X89528989Y-97978984D01*
X86761838Y-101377936D02*
X87572694Y-97563161D01*
%TO.C,D21*%
X82941729Y-120041534D02*
X83752585Y-116226759D01*
X84898024Y-120457358D02*
X85708880Y-116642582D01*
X84898024Y-120457358D02*
X82941729Y-120041534D01*
%TO.C,C8*%
X189338654Y-124292070D02*
X188816150Y-124292070D01*
X189338654Y-122822070D02*
X188816150Y-122822070D01*
%TO.C,D13*%
X126798384Y-96271668D02*
X127609240Y-92456893D01*
X128754679Y-96687492D02*
X129565535Y-92872716D01*
X128754679Y-96687492D02*
X126798384Y-96271668D01*
%TO.C,C7*%
X184248652Y-138093322D02*
X184248652Y-137570818D01*
X185718652Y-138093322D02*
X185718652Y-137570818D01*
%TO.C,D28*%
X280187386Y-112035294D02*
X279376530Y-108220519D01*
X280187386Y-112035294D02*
X278231091Y-112451118D01*
X278231091Y-112451118D02*
X277420235Y-108636342D01*
%TO.C,D12*%
X108164673Y-92310949D02*
X108975529Y-88496174D01*
X110120968Y-92726773D02*
X108164673Y-92310949D01*
X110120968Y-92726773D02*
X110931824Y-88911997D01*
%TD*%
M02*
